<svg width="36" height="36" viewBox="0 0 36 36" fill="none" xmlns="http://www.w3.org/2000/svg">
<rect width="36" height="36" rx="18" fill="#31B939"/>
<g clip-path="url(#clip0_1_4)">
<path d="M23.7861 14.2442L22.7287 13.2093C22.5861 13.0698 22.4079 13 22.2059 13C22.004 13 21.8257 13.0698 21.6832 13.2093L16.598 18.186L14.3287 15.9535C14.1861 15.814 14.0079 15.7442 13.8059 15.7442C13.604 15.7442 13.4257 15.814 13.2832 15.9535L12.2257 16.9884C12.0713 17.1279 12 17.3023 12 17.5C12 17.6977 12.0713 17.8721 12.2139 18.0116L15.0178 20.7558L16.0753 21.7907C16.2178 21.9302 16.396 22 16.598 22C16.8 22 16.9782 21.9302 17.1208 21.7907L18.1782 20.7558L23.7861 15.2674C23.9287 15.1279 24 14.9535 24 14.7558C24 14.5581 23.9287 14.3837 23.7861 14.2442Z" fill="white"/>
</g>
<defs>
<clipPath id="clip0_1_4">
<rect width="12" height="9" fill="white" transform="translate(12 13)"/>
</clipPath>
</defs>
</svg>
