<svg width="13" height="10" viewBox="0 0 13 10" fill="none" xmlns="http://www.w3.org/2000/svg"><path d="M0.705882 4.65116C0.235294 4.18605 0 3.48837 0 2.67442C0 2.09302 0.117647 1.62791 0.352941 1.27907C0.588235 0.930233 0.823529 0.581395 1.17647 0.348837C1.64706 0.116279 2 0 2.47059 0C3.17647 0 3.88235 0.232558 4.35294 0.697674C4.82353 1.16279 5.05882 1.86047 5.05882 2.67442C5.05882 3.48837 4.82353 4.18605 4.35294 4.65116C3.88235 5.11628 3.29412 5.46512 2.47059 5.46512C1.76471 5.46512 1.17647 5.11628 0.705882 4.65116ZM8.35294 0.116279H10.3529L3.64706 9.88372H1.64706L8.35294 0.116279ZM3.17647 3.72093C3.29412 3.48837 3.41176 3.13953 3.41176 2.67442C3.41176 2.2093 3.29412 1.86047 3.17647 1.62791C2.94118 1.39535 2.82353 1.27907 2.47059 1.27907C2.23529 1.27907 2 1.39535 1.88235 1.62791C1.76471 1.86047 1.64706 2.2093 1.64706 2.67442C1.64706 3.13953 1.76471 3.48837 1.88235 3.72093C2 3.95349 2.23529 4.06977 2.47059 4.06977C2.82353 4.06977 2.94118 3.95349 3.17647 3.72093ZM7.64706 9.30233C7.17647 8.83721 6.94118 8.13953 6.94118 7.32558C6.94118 6.51163 7.17647 5.81395 7.64706 5.34884C8.11765 4.88372 8.70588 4.65116 9.52941 4.65116C10.2353 4.65116 10.9412 4.88372 11.4118 5.34884C11.8824 5.81395 12.1176 6.51163 12.1176 7.32558C12 8.13953 11.7647 8.83721 11.2941 9.30233C10.8235 9.76744 10.2353 10 9.52941 10C8.82353 10 8.11765 9.76744 7.64706 9.30233ZM10.1176 8.37209C10.2353 8.13953 10.3529 7.7907 10.3529 7.32558C10.3529 6.86047 10.2353 6.51163 10.1176 6.27907C10 6.04651 9.76471 5.93023 9.52941 5.93023C9.29412 5.93023 9.05882 6.04651 8.94118 6.27907C8.70588 6.51163 8.70588 6.86047 8.70588 7.32558C8.70588 7.7907 8.82353 8.13953 8.94118 8.37209C9.05882 8.60465 9.29412 8.72093 9.52941 8.72093C9.76471 8.72093 10 8.60465 10.1176 8.37209Z" fill="#fff"/></svg>