<svg width="19" height="21" viewBox="0 0 19 21" fill="none" xmlns="http://www.w3.org/2000/svg"><path d="M11.8444 0.422852H7.8434C3.97027 0.422852 0.846191 3.54685 0.846191 7.42445V10.4251C0.846191 13.1335 2.3991 15.5953 4.84721 16.7462V20.0986C4.84721 20.2676 5.0025 20.4229 5.19889 20.4229C5.27654 20.4229 5.36789 20.3909 5.43183 20.3315L8.32297 17.4222H11.8444C15.7221 17.4222 18.8462 14.2982 18.8462 10.4206V7.41988C18.8462 3.54685 15.7221 0.422852 11.8444 0.422852ZM14.4752 13.5446L13.475 14.5448C12.3971 15.5907 9.62924 14.3895 7.18113 11.9004C4.73302 9.41121 3.64599 6.59321 4.67821 5.54731L5.67847 4.54708C6.0804 4.17713 6.71069 4.1954 7.10805 4.57905L8.55591 6.08625C8.92587 6.48816 8.92587 7.08647 8.52394 7.48839C8.41432 7.59801 8.291 7.65738 8.15398 7.72132C7.647 7.87661 7.38666 8.3653 7.50998 8.87684C7.75662 9.98668 9.15423 11.3706 10.2184 11.6446C10.7117 11.7679 11.2187 11.4893 11.3877 11.0143C11.5567 10.521 12.1093 10.247 12.6346 10.416C12.7899 10.4617 12.9132 10.5713 13.0365 10.6626L14.4844 12.1698C14.8452 12.5306 14.8452 13.1472 14.4752 13.5446ZM10.7391 5.17736C10.6295 5.17736 10.5381 5.17736 10.4468 5.20933C10.2778 5.2413 10.0951 5.09972 10.0768 4.90333C10.0586 4.70693 10.1865 4.55165 10.3692 4.53338C10.4925 4.50141 10.6158 4.50141 10.7391 4.50141C12.5843 4.50141 14.0642 6.0086 14.0916 7.82637C14.0916 7.94968 14.0916 8.073 14.0596 8.19632C14.0276 8.3653 13.8906 8.52059 13.6896 8.48862C13.4887 8.45665 13.3653 8.31963 13.3973 8.11867C13.3973 8.00906 13.4293 7.91771 13.4293 7.82637C13.4156 6.37855 12.2144 5.17736 10.7391 5.17736ZM12.7396 7.85377C12.7076 8.02276 12.5706 8.17805 12.3697 8.14608C12.2144 8.11411 12.0774 7.99079 12.0774 7.85377C12.0774 7.13215 11.479 6.52927 10.7528 6.52927C10.5838 6.56124 10.4011 6.40595 10.3829 6.22326C10.3509 6.05427 10.5062 5.87158 10.6752 5.85332H10.7208C11.8764 5.85332 12.7396 6.74393 12.7396 7.85377ZM15.2928 8.91337C15.2608 9.08236 15.0918 9.20568 14.9228 9.19198C14.7538 9.17828 14.6305 8.99102 14.6442 8.82203C14.6442 8.79006 14.6442 8.79006 14.6442 8.77636C14.7219 8.48405 14.7538 8.17805 14.7538 7.85377C14.7538 5.65236 12.9543 3.85286 10.7528 3.85286C10.6432 3.85286 10.5519 3.85286 10.4605 3.85286C10.2915 3.88483 10.1088 3.72954 10.1088 3.54685C10.0768 3.37786 10.2321 3.19517 10.4011 3.19517C10.5244 3.19517 10.6478 3.1632 10.7528 3.1632C13.3242 3.1632 15.4298 5.255 15.4298 7.84007C15.4161 8.19175 15.3704 8.5754 15.2928 8.91337Z" fill="#fff"/></svg>